<svg width="175" height="62" viewBox="0 0 175 62" fill="none" xmlns="http://www.w3.org/2000/svg">
<path d="M4.76 6.736C4.872 6.288 4.928 5.868 4.928 5.476C4.984 5.028 5.04 4.58 5.096 4.132C5.096 3.74 5.096 3.404 5.096 3.124C5.152 2.844 5.18 2.592 5.18 2.368L5.6 1.444C5.768 1.388 5.992 1.36 6.272 1.36C6.552 1.36 6.888 1.332 7.28 1.276C8.456 1.22 9.212 1.08 9.548 0.855998C9.548 0.799999 9.688 0.687999 9.968 0.519998C10.136 0.351996 10.276 0.239996 10.388 0.183997C10.444 0.183997 10.64 0.211997 10.976 0.267996C11.312 0.323995 11.76 0.435995 12.32 0.603997C13.272 0.827997 13.944 0.939997 14.336 0.939997C14.84 0.939997 15.12 0.911998 15.176 0.855998C15.232 0.799999 15.4 0.799999 15.68 0.855998L16.436 2.28399L17.192 6.568L15.428 9.508C15.372 9.564 15.316 9.62 15.26 9.676C15.26 9.732 15.204 9.788 15.092 9.844C14.812 10.012 14.476 10.264 14.084 10.6L13.832 10.852L11.312 11.104C10.976 10.992 10.584 10.88 10.136 10.768C9.688 10.6 9.156 10.404 8.54 10.18C7.924 9.956 7.392 9.76 6.944 9.592C6.496 9.368 6.104 9.2 5.768 9.088L5.348 8.668L4.76 6.736ZM15.176 21.184L14.84 24.208L15.176 25.468L14.672 26.812L14.924 28.744L14.504 30.34L14.756 30.844L14.42 34.624L14.084 42.604C14.084 42.996 14.028 43.5 13.916 44.116C13.804 44.676 13.72 45.292 13.664 45.964C13.608 46.58 13.608 47.224 13.664 47.896C13.72 48.512 13.888 49.044 14.168 49.492C14.112 50.332 14.028 51.312 13.916 52.432C13.804 53.552 13.608 54.84 13.328 56.296C12.88 56.912 12.404 57.472 11.9 57.976C11.452 58.424 10.584 58.676 9.296 58.732C8.568 58.788 7.84 58.844 7.112 58.9C6.44 58.956 5.796 59.04 5.18 59.152C4.844 59.208 4.508 59.264 4.172 59.32C3.836 59.376 3.472 59.46 3.08 59.572L0.980001 56.884C1.036 56.604 1.12 55.848 1.232 54.616C1.4 53.328 1.54 51.816 1.652 50.08C1.764 48.344 1.82 46.496 1.82 44.536C1.876 42.576 1.82 40.756 1.652 39.076L2.156 37.48L2.912 33.784L3.164 30.844L3.668 29.836L3.752 29.08L4.256 26.812L4.676 22.192L12.236 19.252L15.176 21.184ZM41.1605 61.6932C37.9545 61.6932 35.189 60.9856 32.864 59.5703C30.5534 58.1406 28.7699 56.1477 27.5135 53.5916C26.2715 51.0211 25.6506 48.0317 25.6506 44.6236C25.6506 41.2154 26.2715 38.2116 27.5135 35.6122C28.7699 32.9983 30.5173 30.9621 32.7557 29.5035C35.0085 28.0305 37.6368 27.294 40.6406 27.294C42.3736 27.294 44.0849 27.5829 45.7745 28.1605C47.4641 28.7382 49.0021 29.6768 50.3885 30.9766C51.7749 32.2618 52.8796 33.9659 53.7028 36.0888C54.5259 38.2116 54.9375 40.8255 54.9375 43.9304V46.0966H29.2898V41.6776H49.7386C49.7386 39.8002 49.3632 38.125 48.6122 36.652C47.8757 35.179 46.8215 34.0165 45.4496 33.1644C44.0921 32.3124 42.4891 31.8864 40.6406 31.8864C38.6044 31.8864 36.8426 32.3918 35.3551 33.4027C33.8821 34.3991 32.7485 35.6989 31.9542 37.3018C31.1599 38.9048 30.7628 40.6233 30.7628 42.4574V45.4034C30.7628 47.9162 31.196 50.0463 32.0625 51.7937C32.9434 53.5266 34.1637 54.848 35.7234 55.7578C37.283 56.6532 39.0954 57.1009 41.1605 57.1009C42.5036 57.1009 43.7166 56.9131 44.7997 56.5376C45.8973 56.1477 46.8432 55.5701 47.6374 54.8047C48.4317 54.0249 49.0455 53.0573 49.4787 51.902L54.4176 53.2884C53.8977 54.9635 53.024 56.4366 51.7965 57.7074C50.569 58.9638 49.0527 59.9458 47.2475 60.6534C45.4424 61.3466 43.4134 61.6932 41.1605 61.6932ZM86.2823 35.179L81.69 36.4787C81.4012 35.7133 80.9751 34.9696 80.4119 34.2475C79.8632 33.511 79.1122 32.9045 78.1591 32.4279C77.206 31.9513 75.9857 31.7131 74.4982 31.7131C72.462 31.7131 70.7652 32.1824 69.4077 33.1211C68.0646 34.0453 67.3931 35.2223 67.3931 36.652C67.3931 37.9228 67.8552 38.9265 68.7795 39.663C69.7037 40.3995 71.1478 41.0133 73.1119 41.5043L78.0508 42.7173C81.0257 43.4394 83.2424 44.5442 84.701 46.0316C86.1596 47.5046 86.8889 49.4036 86.8889 51.7287C86.8889 53.6349 86.3401 55.339 85.2425 56.8409C84.1594 58.3428 82.6431 59.527 80.6935 60.3935C78.744 61.2599 76.4767 61.6932 73.8917 61.6932C70.498 61.6932 67.6892 60.9567 65.4652 59.4837C63.2412 58.0107 61.8332 55.8589 61.2411 53.0284L66.0934 51.8153C66.5555 53.6061 67.4292 54.9491 68.7145 55.8445C70.0142 56.7398 71.7111 57.1875 73.805 57.1875C76.1879 57.1875 78.0797 56.6821 79.4805 55.6712C80.8957 54.6458 81.6033 53.4183 81.6033 51.9886C81.6033 50.8333 81.199 49.8658 80.3903 49.0859C79.5816 48.2917 78.3396 47.6996 76.6644 47.3097L71.119 46.0099C68.0719 45.2879 65.8335 44.1687 64.4038 42.6523C62.9885 41.1216 62.2809 39.2081 62.2809 36.9119C62.2809 35.0346 62.808 33.3738 63.8622 31.9297C64.9309 30.4856 66.3822 29.3519 68.2163 28.5288C70.0647 27.7056 72.1587 27.294 74.4982 27.294C77.7908 27.294 80.3758 28.0161 82.2532 29.4602C84.145 30.9044 85.488 32.8106 86.2823 35.179ZM99.6965 16.6364V61H94.5843V16.6364H99.6965ZM109.06 61V27.7273H114.172V61H109.06ZM111.659 22.1818C110.663 22.1818 109.804 21.8424 109.081 21.1637C108.374 20.485 108.02 19.669 108.02 18.7159C108.02 17.7628 108.374 16.9469 109.081 16.2681C109.804 15.5894 110.663 15.25 111.659 15.25C112.656 15.25 113.508 15.5894 114.215 16.2681C114.937 16.9469 115.298 17.7628 115.298 18.7159C115.298 19.669 114.937 20.485 114.215 21.1637C113.508 21.8424 112.656 22.1818 111.659 22.1818ZM128.648 40.9844V61H123.535V27.7273H128.474V32.9261H128.908C129.687 31.2365 130.872 29.879 132.46 28.8537C134.049 27.8139 136.099 27.294 138.612 27.294C140.865 27.294 142.836 27.7562 144.526 28.6804C146.215 29.5902 147.53 30.9766 148.468 32.8395C149.407 34.688 149.876 37.0275 149.876 39.858V61H144.764V40.2045C144.764 37.5907 144.085 35.5545 142.728 34.0959C141.37 32.6229 139.507 31.8864 137.139 31.8864C135.507 31.8864 134.049 32.2402 132.763 32.9478C131.493 33.6554 130.489 34.688 129.752 36.0455C129.016 37.4029 128.648 39.0492 128.648 40.9844ZM173.688 27.7273V32.0597H156.445V27.7273H173.688ZM161.471 19.7557H166.583V51.4688C166.583 52.9129 166.792 53.996 167.211 54.718C167.645 55.4257 168.193 55.9022 168.858 56.1477C169.536 56.3788 170.251 56.4943 171.002 56.4943C171.565 56.4943 172.027 56.4654 172.388 56.4077C172.75 56.3355 173.038 56.2777 173.255 56.2344L174.295 60.8267C173.948 60.9567 173.464 61.0866 172.843 61.2166C172.222 61.361 171.435 61.4332 170.482 61.4332C169.038 61.4332 167.623 61.1228 166.237 60.5018C164.865 59.8808 163.724 58.9349 162.814 57.6641C161.919 56.3932 161.471 54.7902 161.471 52.8551V19.7557Z" fill="#F59E0B"/>
</svg>
